<?xml version="1.0" encoding="UTF-8" standalone="no"?>
<svg
   xmlns:dc="http://purl.org/dc/elements/1.1/"
   xmlns:cc="http://creativecommons.org/ns#"
   xmlns:rdf="http://www.w3.org/1999/02/22-rdf-syntax-ns#"
   xmlns:svg="http://www.w3.org/2000/svg"
   xmlns="http://www.w3.org/2000/svg"
   xmlns:sodipodi="http://sodipodi.sourceforge.net/DTD/sodipodi-0.dtd"
   xmlns:inkscape="http://www.inkscape.org/namespaces/inkscape"
   version="1.1"
   x="0px"
   y="0px"
   viewBox="0 0 300 300"
   enable-background="new 0 0 90 90"
   xml:space="preserve"
   id="svg3336"
   inkscape:version="0.91 r13725"
   sodipodi:docname="buffalodevs.svg"
   width="300"
   height="300"
   inkscape:export-filename="C:\Users\weissam\Downloads\buffalodevs.png"
   inkscape:export-xdpi="39.599998"
   inkscape:export-ydpi="39.599998"><title
     id="title4178">buffalodevs</title><metadata
     id="metadata3348"><rdf:RDF><cc:Work
         rdf:about=""><dc:format>image/svg+xml</dc:format><dc:type
           rdf:resource="http://purl.org/dc/dcmitype/StillImage" /><dc:title>buffalodevs</dc:title><cc:license
           rdf:resource="http://creativecommons.org/licenses/by/3.0/" /></cc:Work><cc:License
         rdf:about="http://creativecommons.org/licenses/by/3.0/"><cc:permits
           rdf:resource="http://creativecommons.org/ns#Reproduction" /><cc:permits
           rdf:resource="http://creativecommons.org/ns#Distribution" /><cc:requires
           rdf:resource="http://creativecommons.org/ns#Notice" /><cc:requires
           rdf:resource="http://creativecommons.org/ns#Attribution" /><cc:permits
           rdf:resource="http://creativecommons.org/ns#DerivativeWorks" /></cc:License></rdf:RDF></metadata><defs
     id="defs3346" /><sodipodi:namedview
     pagecolor="#ffffff"
     bordercolor="#666666"
     borderopacity="1"
     objecttolerance="10"
     gridtolerance="10"
     guidetolerance="10"
     inkscape:pageopacity="0"
     inkscape:pageshadow="2"
     inkscape:window-width="2483"
     inkscape:window-height="1417"
     id="namedview3344"
     showgrid="false"
     showborder="true"
     inkscape:zoom="1"
     inkscape:cx="-6"
     inkscape:cy="213.96154"
     inkscape:window-x="2872"
     inkscape:window-y="-8"
     inkscape:window-maximized="1"
     inkscape:current-layer="layer4"><inkscape:grid
       type="xygrid"
       id="grid4176" /></sodipodi:namedview><g
     inkscape:groupmode="layer"
     id="layer3"
     inkscape:label="horn"><rect
       style="fill:#00ffff;fill-opacity:1"
       id="rect4164"
       width="38.509315"
       height="53.416149"
       x="34.161491"
       y="101.86336" /></g><g
     inkscape:groupmode="layer"
     id="layer1"
     inkscape:label="buffalo"
     style="display:inline"><path
       d="m 278.03382,117.42793 c 0.0597,0.0386 0.10902,0.11958 0.14771,0.23916 l 0,0.0879 c 1.38568,4.0304 2.62362,7.86737 3.72443,11.51091 1.10081,3.64354 2.45833,6.30937 4.07964,7.99398 l 0.0879,0.0879 c 1.35753,1.143 2.41965,2.09961 3.18985,2.8663 0.71042,0.71042 1.17465,1.19927 1.3927,1.47711 1.04101,1.75495 1.67757,3.75256 1.8886,5.99988 -0.15827,1.08674 -0.31301,2.03982 -0.47127,2.86278 -0.17936,0.77021 -0.37632,1.44897 -0.59085,2.04334 l -1.30126,3.13357 c -0.3939,1.14301 -0.77724,2.26491 -1.15355,3.36922 -0.33411,1.13948 -0.64009,2.26842 -0.9144,3.36571 -0.0421,0.47478 -0.11958,0.95309 -0.23564,1.44897 -0.0597,0.55567 -0.11957,1.04453 -0.17936,1.47711 l -0.0597,0.088 c -0.27433,-0.095 -0.5803,-0.23212 -0.91792,-0.41149 -2.52164,-1.41731 -4.46299,-3.19337 -5.82052,-5.32111 -1.31886,-2.18752 -2.08907,-4.73026 -2.3036,-7.6247 -0.0421,-0.61546 -0.0107,-1.43842 0.0844,-2.48295 0.0633,-1.02343 0.11958,-2.22622 0.17586,-3.60485 l 0.0668,-1.71275 c 0.45017,-0.82648 0.50996,-2.13829 0.17585,-3.93193 -0.43258,1.90969 -0.98474,4.17811 -1.65647,6.79823 -0.0985,0.43258 -0.2075,0.87923 -0.32707,1.3294 -0.70691,2.6799 -1.2028,5.00459 -1.47711,6.97407 -0.27433,1.47712 -0.41149,2.76079 -0.41149,3.84048 0,2.46537 0.49237,4.95887 1.47711,7.48051 0.98122,2.46185 2.46186,4.9448 4.43133,7.44534 1.20631,1.48063 2.1594,2.67989 2.86629,3.60485 0.66822,0.88627 1.11488,1.49118 1.32941,1.80771 1.2063,1.93078 1.8077,3.7596 1.8077,5.49695 0,0.88627 -0.55216,2.701 -1.65648,5.43717 -1.02342,2.71859 -2.61308,6.38323 -4.76191,10.99744 l -6.94594,14.51086 c -1.59669,3.33052 -2.45482,6.96352 -2.57088,10.90951 -0.0387,1.13947 -0.0633,2.43019 -0.0633,3.87214 0,1.36104 0.0562,2.91553 0.15123,4.66695 -0.095,2.62365 -0.94605,4.48058 -2.54274,5.58841 -1.8499,1.24499 -5.26835,1.86046 -10.25536,1.86046 -3.17227,0 -6.34454,-0.24267 -9.51682,-0.73855 -3.98116,-0.71044 -5.96822,-1.60373 -5.96822,-2.69046 0,-2.36338 1.19927,-5.86976 3.60485,-10.52265 0.43258,-0.86517 1.00233,-1.92728 1.71274,-3.18986 0.70691,-1.30126 1.58262,-2.79948 2.62715,-4.49112 0.98475,-1.69516 2.12774,-3.6154 3.42901,-5.76424 1.48063,-2.50406 2.93663,-5.01514 4.37506,-7.5403 1.41732,-2.52164 2.77837,-5.03272 4.07963,-7.53677 0,-0.33763 0.0633,-0.67175 0.17585,-1.00584 l 0,-0.65063 0.0879,-0.56272 c -0.0597,-1.9308 -0.96011,-3.65057 -2.71858,-5.16989 -1.04453,-0.88977 -3.09137,-2.14884 -6.14407,-3.78421 l -1.71274,-0.96716 c -0.60843,-0.33762 -1.12895,-0.64359 -1.56504,-0.91792 -0.21805,0.61195 -0.46424,1.21335 -0.73855,1.80419 -0.27432,0.61195 -0.5803,1.19223 -0.9144,1.7444 -1.41732,2.22621 -3.7174,4.78653 -6.88615,7.68448 -1.91321,1.5967 -3.58024,3.0527 -4.99756,4.37506 -1.42084,1.30127 -2.62011,2.41614 -3.60836,3.33757 -3.38329,3.34812 -6.0456,6.72086 -7.97992,10.10766 -1.41381,2.4091 -2.63769,4.83929 -3.66464,7.30114 -1.10079,2.40557 -2.00816,4.83929 -2.71506,7.30114 -0.3939,1.25906 -0.78076,2.64825 -1.15356,4.16757 -0.43258,1.47711 -0.84759,3.09489 -1.24499,4.84632 -0.86517,2.25084 -2.20511,3.78422 -4.01986,4.61421 -2.00816,0.80539 -5.64115,1.21334 -10.90599,1.21334 l -7.62821,0 c -3.7596,-0.15825 -5.6271,-0.728 -5.58137,-1.71625 -0.0457,-1.41381 0.40092,-3.11249 1.3294,-5.08196 0.86516,-2.02576 2.23324,-4.35397 4.10777,-6.97056 1.20279,-1.75495 2.80651,-3.89324 4.81467,-6.41488 1.973,-2.44075 4.35396,-5.22968 7.15343,-8.36326 l 11.22957,-13.12167 c 0.27431,-0.31651 0.49236,-0.59084 0.65062,-0.82647 l 1.06563,-1.3927 c 0.33763,-0.43258 0.66821,-0.83351 1.00585,-1.20982 -0.61195,-4.2168 -1.98004,-7.69505 -4.10778,-10.43825 -2.12774,-2.77486 -5.05735,-4.77599 -8.77825,-5.99637 -2.09258,-0.71042 -4.82875,-1.22037 -8.21907,-1.54041 -0.27432,-0.0597 -0.5205,-0.0879 -0.73855,-0.0879 l -3.19337,0 c 0,-0.11606 0,-0.19694 0,-0.23563 -2.52164,-0.17585 -5.31056,-0.26378 -8.36326,-0.26378 -1.04453,0 -2.59901,0.20046 -4.67048,0.59085 -2.08905,0.32005 -4.7162,0.85813 -7.88847,1.62482 -2.46185,0.61546 -4.43485,1.07619 -5.91548,1.3927 -1.47359,0.33412 -2.43019,0.50293 -2.86629,0.50293 l -0.23212,0 -12.26353,3.90027 c -0.93902,-2.82409 -3.88621,-7.25542 -8.83805,-13.30102 1.96948,11.19789 2.82761,17.036 2.56736,17.52837 -2.67989,4.64938 -8.05025,9.79113 -16.10753,15.42877 -6.06671,4.19569 -11.18032,6.87912 -15.33734,8.0397 0.33412,0.65063 0.72098,1.22389 1.15356,1.71274 1.31885,1.53691 3.35163,2.46185 6.0878,2.77838 0.7667,0.0597 1.66703,0.1477 2.69045,0.26376 0.98475,0.0597 2.13478,0.13717 3.45715,0.23564 1.84991,0.39389 2.80651,1.54744 2.86629,3.45713 0,0.86869 -0.18639,2.3458 -0.5627,4.43486 -0.39038,2.06795 -0.9144,4.71972 -1.56504,7.95177 -0.76669,3.48528 -1.42787,6.1054 -1.98002,7.86035 -0.54865,1.69164 -0.98475,2.54273 -1.29776,2.54273 -1.41732,0 -3.2215,-0.92847 -5.40904,-2.77837 -2.2473,-1.81473 -4.87445,-4.57201 -7.89198,-8.27534 -3.22854,-3.84399 -5.69391,-6.99868 -7.38906,-9.45701 -0.80889,0.98473 -1.5967,1.88858 -2.36338,2.71506 -0.77021,0.86868 -1.50876,1.63537 -2.21567,2.30359 l -0.73855,2.36688 c -1.378641,3.88271 -2.718589,6.48171 -4.019861,7.80407 l -10.255357,1.30128 c -3.822903,0.49236 -7.072548,0.73855 -9.752442,0.73855 -2.581427,0 -3.872141,-0.73855 -3.872141,-2.21919 0,-0.31301 0.798337,-1.62483 2.39503,-3.92841 1.635364,-2.286 4.069085,-5.59895 7.301142,-9.92829 3.172271,-4.31879 5.574326,-7.59657 7.209704,-9.8474 1.575585,-2.184 2.39503,-3.35867 2.454814,-3.51693 -0.05974,-0.7069 -0.580293,-1.58262 -1.568551,-2.62715 l -3.337564,-3.04565 c -3.291839,-2.95423 -4.937772,-5.57434 -4.937772,-7.86034 0,-1.69516 0.847589,-3.49583 2.54275,-5.40904 0.432581,-0.49237 1.121894,-1.15355 2.06795,-1.98002 0.928466,-0.82648 2.067958,-1.78309 3.429004,-2.8663 2.620115,-2.08906 4.480569,-3.7807 5.584882,-5.08197 1.575576,-1.97299 2.39503,-3.91082 2.451301,-5.82052 -1.044529,-0.17936 -2.275453,-0.45719 -3.692771,-0.82999 -2.461857,-0.7069 -7.329289,0.27783 -14.598777,2.95774 -1.793638,0.65063 -3.351629,1.52986 -4.670476,2.63065 -1.417325,3.39033 -2.187538,6.71734 -2.303591,9.9916 -0.0985,5.14176 -1.962449,10.99393 -5.584886,17.553 -3.604852,6.62238 -6.74899,9.93181 -9.428884,9.93181 -0.0985,0 -1.055078,-2.48295 -2.866302,-7.44886 -1.972996,-5.2578 -3.615398,-8.46173 -4.934245,-9.60473 -4.473543,-3.8405 -6.710309,-9.58364 -6.710309,-17.22943 0,-0.54865 0.02811,-1.10081 0.08788,-1.65297 l -1.65648,0 c -0.552153,0.17586 -1.642402,0.58733 -3.281296,1.24148 -1.477111,0.55216 -2.620108,0.82648 -3.429001,0.82648 -3.840488,0 -7.104199,-3.36921 -9.780584,-10.10766 -3.115993,-7.70559 -5.13471,-11.8626 -6.059668,-12.47454 -3.446587,-2.34228 -6.26365,-6.2742 -8.451177,-11.79579 -2.0292634,-5.20153 -3.0456606,-10.55781 -3.0456606,-16.07587 0,-1.96949 1.7549472,-8.2683 5.2613216,-18.88591 3.604862,-10.60354 5.546206,-16.34669 5.820522,-17.23295 1.536897,-4.431337 6.186279,-7.329291 13.951655,-8.686825 2.679904,-0.4361 6.995172,-0.759656 12.945815,-0.977706 5.968228,-0.21805 10.512104,-2.599011 13.624589,-7.153434 1.754947,-2.620112 3.397349,-4.77599 4.934246,-6.47115 5.911908,-6.83695 10.03726,-11.408957 12.383051,-13.712545 10.874353,-10.603541 23.595078,-15.900037 38.155179,-15.900037 12.90712,0 31.28307,6.256617 55.12082,18.766335 6.22848,3.291845 15.03136,8.081902 26.42621,14.366654 9.23896,4.983488 16.104,8.155757 20.59864,9.51681 1.2028,0.393895 3.8194,0.946054 7.86034,1.652956 l 14.36665,0 c 16.50847,-1.044528 29.44725,6.228492 38.80229,21.812002 0.0985,0.14419 0.21101,0.33762 0.32707,0.57326 z m -241.711493,9.42889 c -0.05977,0.0985 -0.109025,0.23914 -0.147717,0.41851 -1.100796,2.00818 -1.652949,4.16757 -1.652949,6.47115 0,1.25906 0.411475,2.57088 1.241475,3.93192 0.984733,1.63538 2.21566,2.45483 3.69277,2.45483 3.390322,0 6.119454,-1.9097 8.187409,-5.7326 1.909692,-3.48879 2.866302,-7.67394 2.866302,-12.56247 0,-2.34578 -0.65063,-6.0878 -1.951902,-11.22955 -0.886266,-3.116 -1.596683,-5.40904 -2.127741,-6.88615 0.52403,4.17811 -0.207492,9.13698 -2.201594,14.88013 -1.994102,5.73962 -4.628276,8.49337 -7.906053,8.25423 z"
       id="path3338"
       inkscape:connector-curvature="0"
       style="clip-rule:evenodd;fill:#000080;fill-rule:evenodd;fill-opacity:1" /></g><g
     inkscape:groupmode="layer"
     id="layer2"
     inkscape:label="dot"
     style="display:none"><path
       style="fill:#ffffff"
       d="m 35.178209,154.47069 c -1.48733,-1.78127 -5.731546,-3.18684 -5.456069,-6.02804 0.275475,-2.84121 1.531171,-5.24383 3.293843,-6.30238 1.762672,-1.05857 6.671789,-2.33348 5.250708,1.17105 l -1.226273,3.5754 z"
       id="path3357"
       inkscape:connector-curvature="0"
       sodipodi:nodetypes="cssccc" /></g><g
     inkscape:groupmode="layer"
     id="layer4"
     inkscape:label="NET"><text
       xml:space="preserve"
       style="font-style:normal;font-variant:normal;font-weight:normal;font-stretch:normal;font-size:70px;line-height:125%;font-family:'Segoe UI';-inkscape-font-specification:'Segoe UI, Normal';text-align:start;letter-spacing:0px;word-spacing:0px;writing-mode:lr-tb;text-anchor:start;fill:#ffffff;fill-opacity:1;stroke:none;stroke-width:1px;stroke-linecap:butt;stroke-linejoin:miter;stroke-opacity:1"
       x="73.796387"
       y="154.47069"
       id="text4167"
       sodipodi:linespacing="125%"><tspan
         sodipodi:role="line"
         id="tspan4151"
         x="73.796387"
         y="154.47069">Devs</tspan></text>
</g></svg>